# xmcd
#
# Track frame offsets:
#	150
#	13865
#	28052
#	41167
#	54235
#	68627
#	81547
#	94575
#	111150
#	126935
#	141240
#	155882
#	168787
#	181407
#	196715
#	211930
#	225285
#	239055
#
# Disc length: 3389 seconds
#
# Revision: 1
# Processed by: cddbd v1.5.1PL0 Copyright (c) Steve Scherf et al.
# Submitted via: audiograbber 1.83.01
#
DISCID=f70d3b12
DTITLE=The Swingin' Bluebirds - Wochend and Sonnenschein
DYEAR=1900
DGENRE=
TTITLE0=Black Bottom
TTITLE1=Blue Nights
TTITLE2=Love found you for me
TTITLE3=Milneburg Joys
TTITLE4=Mama's gone Goodbye
TTITLE5=Five Foot two Eyes of Blue
TTITLE6=What Cha Call 'em Blues
TTITLE7=West End Blues
TTITLE8=I've found a new Baby
TTITLE9=Take me away from the River
TTITLE10=Charleston
TTITLE11=Selling that Stuff
TTITLE12=Wang Wang Blues
TTITLE13=Deep Henderson
TTITLE14=Happy Feet
TTITLE15=Someday Sweetheart
TTITLE16=Variety Stomp
TTITLE17=Wochenend und Sonnenschein
EXTD=
EXTT0=
EXTT1=
EXTT2=
EXTT3=
EXTT4=
EXTT5=
EXTT6=
EXTT7=
EXTT8=
EXTT9=
EXTT10=
EXTT11=
EXTT12=
EXTT13=
EXTT14=
EXTT15=
EXTT16=
EXTT17=
PLAYORDER=
